<svg width="22" height="21" fill="none" xmlns="http://www.w3.org/2000/svg"><g filter="url(#a)"><path d="M0 4.5C0 2.016 4.924 0 11 0s11 2.016 11 4.5S17.076 9 11 9 0 6.984 0 4.5Zm0 3.853V13.5C0 15.984 4.924 18 11 18s11-2.016 11-4.5V8.353c-4.873 3.858-17.123 3.863-22 0Z" fill="#000"/><path d="M.5 4.5c0-.444.218-.914.712-1.392.496-.48 1.24-.934 2.199-1.327C5.328.997 8.01.5 11 .5c2.99 0 5.672.497 7.59 1.281.959.393 1.702.848 2.198 1.327.494.478.712.948.712 1.392 0 .444-.218.914-.712 1.392-.496.48-1.24.934-2.199 1.327C16.672 8.003 13.99 8.5 11 8.5c-2.99 0-5.672-.497-7.59-1.281-.959-.393-1.702-.848-2.198-1.327C.718 5.414.5 4.944.5 4.5Zm0 9V9.315c2.627 1.646 6.603 2.434 10.502 2.433 3.898 0 7.872-.789 10.498-2.433V13.5c0 .444-.218.914-.712 1.392-.496.48-1.24.934-2.199 1.327-1.917.784-4.6 1.281-7.589 1.281-2.99 0-5.672-.497-7.59-1.281-.959-.393-1.702-.848-2.198-1.327C.718 14.414.5 13.944.5 13.5Z" stroke="#000"/></g><defs><filter id="a" x="-4" y="0" width="30" height="26" filterUnits="userSpaceOnUse" color-interpolation-filters="sRGB"><feFlood flood-opacity="0" result="BackgroundImageFix"/><feColorMatrix in="SourceAlpha" values="0 0 0 0 0 0 0 0 0 0 0 0 0 0 0 0 0 0 127 0" result="hardAlpha"/><feOffset dy="4"/><feGaussianBlur stdDeviation="2"/><feComposite in2="hardAlpha" operator="out"/><feColorMatrix values="0 0 0 0 0 0 0 0 0 0 0 0 0 0 0 0 0 0 0.25 0"/><feBlend in2="BackgroundImageFix" result="effect1_dropShadow_1_20"/><feBlend in="SourceGraphic" in2="effect1_dropShadow_1_20" result="shape"/></filter></defs></svg>