<svg width="20" height="22" fill="none" xmlns="http://www.w3.org/2000/svg"><path d="M19.383 12.635c1.23-3.315.617-7.257-1.844-9.946-3.278-3.584-8.594-3.584-11.871 0L3.48 5.079l8.262 9.013c1.8-2.646 5.137-3.298 7.64-1.457Zm-8.512 3.396L2.26 6.644c-1.066 1.93-.847 4.474.676 6.14l1.348 1.475-4.024 3.81a.892.892 0 0 0-.039 1.227l2.086 2.28a.723.723 0 0 0 1.121-.043l3.489-4.402 1.394 1.521c.77.84 1.743 1.3 2.746 1.42a6.556 6.556 0 0 1-.43-2.349 6.365 6.365 0 0 1 .243-1.692Zm5.379-2.394c-2.07 0-3.75 1.832-3.75 4.09 0 2.259 1.68 4.091 3.75 4.091 2.07 0 3.75-1.832 3.75-4.09 0-2.26-1.68-4.092-3.75-4.092Z" fill="#000"/></svg>