<svg width="22" height="22" fill="none" xmlns="http://www.w3.org/2000/svg"><path d="M9.943 10.462a12.27 12.27 0 0 0-.976-4.542C5.066 7.742 2.2 11.18 1.22 15.236a10.7 10.7 0 0 0 2.445 3.485 14.346 14.346 0 0 1 6.278-8.259ZM8.357 4.687a12.213 12.213 0 0 0-2.466-3.038C1.98 3.79-.331 8.22.52 12.916c1.435-3.571 4.228-6.532 7.837-8.229Zm8.061 7.094c.37-4.288-1.173-8.486-4.19-11.36A10.383 10.383 0 0 0 7.98.784a14.346 14.346 0 0 1 4.018 9.57c1.369.753 2.87 1.237 4.421 1.426Zm-5.358.408a12.302 12.302 0 0 0-3.446 3.12c3.523 2.462 7.928 3.227 11.924 2.054A10.62 10.62 0 0 0 21.35 13.5a14.44 14.44 0 0 1-3.476.447c-2.346-.004-4.68-.606-6.815-1.758Zm-4.224 4.284a12.222 12.222 0 0 0-1.38 3.618 10.617 10.617 0 0 0 12.419-.95c-4.851.693-8.736-1.065-11.039-2.668ZM14.583.98c2.377 3.025 3.545 6.926 3.206 10.897 1.309.003 2.61-.204 3.854-.61 0-.086.013-.172.013-.258 0-4.632-2.952-8.555-7.073-10.03Z" fill="#000"/></svg>